<?xml version="1.0" encoding="utf-8"?>
<!-- Generator: Adobe Illustrator 28.0.0, SVG Export Plug-In . SVG Version: 6.00 Build 0)  -->
<svg version="1.1" id="Layer_1" xmlns="http://www.w3.org/2000/svg" xmlns:xlink="http://www.w3.org/1999/xlink" x="0px" y="0px"
	 viewBox="0 0 180 160.42" style="enable-background:new 0 0 180 160.42;" xml:space="preserve">
<style type="text/css">
	.st0{fill:url(#SVGID_1_);}
</style>
<g>
	<linearGradient id="SVGID_1_" gradientUnits="userSpaceOnUse" x1="34.1702" y1="80.506" x2="145.541" y2="80.506">
		<stop  offset="0" style="stop-color:#FFFFFF"/>
		<stop  offset="1" style="stop-color:#000000"/>
	</linearGradient>
	<path class="st0" d="M34.17,82.87c9.25,0,18.18,0,27.2,0c2.63,14.01,10.29,23.18,24.58,25.49c11.2,1.81,22.05-3.71,26.78-14.5
		c-1.99,1.07-4.31,1.79-5.9,3.28c-6.74,6.32-14.49,8.79-23.42,6.27c-8.86-2.51-14.57-8.4-16.81-17.43
		c-2.52-10.14,2.06-20.71,11.22-26.07c9.22-5.4,20.61-3.89,28.62,3.59c1.71,1.6,3.97,2.61,6.29,3.4
		c-2.65-8.87-13.22-14.76-24.36-14.42c-13.43,0.42-22.19,8.66-27.26,25.96c-7.84,0-15.82,0.01-23.79-0.01c-0.96,0-1.93-0.2-2.85-0.3
		c-1.04-20.07,16.37-50.76,52.02-53.38c30.29-2.22,57.1,21.85,58.95,52.8c1.82,30.52-22.32,57.28-53.04,58.78
		C61.79,137.83,35.24,113.73,34.17,82.87z M49.7,93.73c-0.42,0.45-0.85,0.9-1.27,1.35c5.18,18.88,27.04,32.37,47.3,29.16
		c23.52-3.72,39.09-22.94,37.98-46.87c-0.97-20.91-19.28-39.45-40.3-40.8c-20.73-1.33-41.59,12.49-44.81,29.72
		c3.77,1.64,4.4-1.38,5.6-3.69C62.88,45.9,81.15,37.47,99.15,41.8c16.92,4.07,29.65,19.42,29.94,36.37c-9.06,0-18.13,0-27.06,0
		c-3.92-7.96-8.9-10.99-15.24-9.46c-5.25,1.27-9.11,6.22-9.14,11.71c-0.02,5.63,3.53,10.31,8.97,11.79
		c6.34,1.73,11.04-1.08,15.44-9.18c9.1,0,18.13,0,27.08,0c0.13,0.77,0.26,1.1,0.22,1.42c-2.29,18.25-15.09,32.08-32.53,35.18
		c-17.91,3.18-34.47-5.32-43.07-21.89C52.93,96.13,51.08,95.05,49.7,93.73z"/>
</g>
</svg>
